<?xml version="1.0" standalone="no"?>
<!DOCTYPE svg PUBLIC "-//W3C//DTD SVG 20010904//EN"
 "http://www.w3.org/TR/2001/REC-SVG-20010904/DTD/svg10.dtd">
<svg version="1.0" xmlns="http://www.w3.org/2000/svg"
 width="512.000000pt" height="512.000000pt" viewBox="0 0 512.000000 512.000000"
 preserveAspectRatio="xMidYMid meet">

<g transform="translate(0.000000,512.000000) scale(0.100000,-0.100000)"
fill="#000000" stroke="none">
<path d="M1922 5027 c-42 -13 -115 -77 -135 -119 -9 -18 -78 -281 -154 -585
l-138 -553 -587 0 c-387 0 -604 -4 -638 -11 -64 -14 -127 -61 -160 -119 -20
-36 -25 -59 -25 -116 0 -61 4 -77 30 -120 19 -30 49 -60 79 -79 l49 -30 564
-3 c362 -2 563 -6 563 -12 0 -8 -317 -1286 -351 -1412 l-10 -37 -383 -3 -383
-3 -49 -30 c-30 -19 -60 -49 -79 -79 -26 -43 -30 -59 -30 -120 0 -86 27 -143
92 -192 63 -48 112 -54 429 -54 267 0 285 -1 280 -17 -30 -99 -246 -990 -246
-1014 0 -123 117 -239 240 -239 81 0 178 60 213 132 9 18 78 281 154 585 l138
553 873 0 c827 0 873 -1 868 -17 -30 -99 -246 -990 -246 -1014 0 -123 117
-239 240 -239 81 0 178 60 213 132 9 18 78 281 154 585 l138 553 587 0 c387 0
604 4 638 11 217 47 257 352 57 445 l-52 24 -552 0 c-366 0 -553 3 -553 10 0
8 317 1284 351 1413 l10 37 372 0 372 0 52 24 c157 74 177 295 36 402 -63 48
-112 54 -429 54 -267 0 -285 1 -280 18 30 98 246 989 246 1013 0 123 -117 239
-240 239 -81 0 -178 -60 -213 -132 -9 -18 -78 -281 -154 -585 l-138 -553 -873
0 c-827 0 -873 1 -868 18 30 98 246 989 246 1013 0 62 -23 113 -75 164 -69 70
-153 91 -243 62z m1688 -1747 c0 -8 -317 -1284 -351 -1412 l-10 -38 -869 0
c-580 0 -870 3 -870 10 0 8 317 1284 351 1413 l10 37 869 0 c580 0 870 -3 870
-10z"/>
</g>
</svg>
